<?xml version="1.0" encoding="iso-8859-1"?>
<!-- Generator: Adobe Illustrator 19.0.0, SVG Export Plug-In . SVG Version: 6.00 Build 0)  -->
<svg version="1.1" id="Capa_1" xmlns="http://www.w3.org/2000/svg" xmlns:xlink="http://www.w3.org/1999/xlink" x="0px" y="0px"
	 viewBox="0 0 512 512" style="enable-background:new 0 0 512 512;" xml:space="preserve">
<path d="M374.672,512H91.744c-15.936,0-28.968-13.04-28.968-28.968V28.968C62.776,13.04,75.816,0,91.744,0h328.504
	c15.936,0,28.968,13.04,28.968,28.968v408.688"/>
<path style="fill:#F91E1E;" d="M374.656,452.528V512l74.568-74.336h-59.696C381.352,437.664,374.656,444.352,374.656,452.528z"/>
<rect x="114.152" y="261.008" style="fill:#999999;" width="59.104" height="59.104"/>
<circle style="fill:#FFFFFF;" cx="143.704" cy="290.56" r="11.824"/>
<rect x="114.152" y="349.44" style="fill:#999999;" width="59.104" height="59.104"/>
<g style="opacity:0.5;">
	<rect x="196.896" y="274.72" style="fill:#FFFFFF;" width="177.28" height="8"/>
	<rect x="196.896" y="298.4" style="fill:#FFFFFF;" width="200.96" height="8"/>
	<rect x="196.896" y="363.2" style="fill:#FFFFFF;" width="177.28" height="8"/>
	<rect x="196.896" y="386.8" style="fill:#FFFFFF;" width="200.96" height="8"/>
</g>
<circle style="fill:#FFFFFF;" cx="143.704" cy="378.96" r="11.824"/>
<rect x="114.152" y="111.656" style="fill:#F91E1E;" width="15.832" height="43.768"/>
<rect x="134.752" y="97.936" style="fill:#FFFFFF;" width="15.832" height="57.488"/>
<rect x="155.36" y="57.296" style="fill:#F91E1E;" width="15.832" height="98.12"/>
<rect x="175.968" y="111.656" style="fill:#FFFFFF;" width="15.832" height="43.768"/>
<g>
	<rect x="196.568" y="155.424" style="fill:#999999;" width="15.832" height="29.912"/>
	<rect x="217.2" y="155.424" style="fill:#999999;" width="15.832" height="63.424"/>
	<rect x="237.784" y="155.424" style="fill:#999999;" width="15.832" height="29.912"/>
</g>
<rect x="258.4" y="126.68" style="fill:#FFFFFF;" width="15.832" height="28.744"/>
<rect x="278.992" y="80" style="fill:#F91E1E;" width="15.832" height="75.4"/>
<rect x="299.592" y="111.656" style="fill:#FFFFFF;" width="15.832" height="43.768"/>
<rect x="320.16" y="44.392" style="fill:#F91E1E;" width="15.832" height="111.032"/>
<rect x="340.808" y="111.656" style="fill:#FFFFFF;" width="15.832" height="43.768"/>
<g>
	<rect x="361.44" y="155.424" style="fill:#999999;" width="15.832" height="29.912"/>
	<rect x="382.016" y="155.424" style="fill:#999999;" width="15.832" height="63.424"/>
</g>
<g>
</g>
<g>
</g>
<g>
</g>
<g>
</g>
<g>
</g>
<g>
</g>
<g>
</g>
<g>
</g>
<g>
</g>
<g>
</g>
<g>
</g>
<g>
</g>
<g>
</g>
<g>
</g>
<g>
</g>
</svg>
